<svg width="250" height="53" viewBox="0 0 250 53" fill="none" xmlns="http://www.w3.org/2000/svg">
<path d="M14.28 31.192L12.912 50.92C12.864 51.304 12.816 51.592 12.768 51.784C12.768 51.928 12.552 52 12.12 52H8.16C5.472 52 3.552 51.472 2.4 50.416C1.248 49.36 0.672 47.848 0.672 45.88C0.672 44.92 0.744 43.288 0.888 40.984C1.032 38.632 1.224 35.968 1.464 32.992C1.704 30.016 1.944 26.872 2.184 23.56C2.424 20.248 2.664 17.128 2.904 14.2C3.144 11.272 3.336 8.704 3.48 6.496C3.624 4.288 3.696 2.776 3.696 1.96C3.696 1.24 4.08 0.879997 4.848 0.879997H30.192C30.48 0.879997 30.744 0.951998 30.984 1.096C31.224 1.24 31.344 1.504 31.344 1.888L31.056 6.136C30.96 7.576 30.552 8.752 29.832 9.664C29.16 10.528 27.744 10.96 25.584 10.96H15.648L14.928 21.112H25.152C25.44 21.112 25.704 21.184 25.944 21.328C26.184 21.472 26.304 21.736 26.304 22.12L26.016 26.368C25.92 27.808 25.512 28.984 24.792 29.896C24.12 30.76 22.704 31.192 20.544 31.192H14.28ZM54.4301 0.879997C55.6301 0.879997 56.6141 1.12 57.3821 1.6C58.1981 2.032 58.8701 2.632 59.3981 3.4C59.9261 4.12 60.3581 4.96 60.6941 5.92C61.0301 6.88 61.3181 7.864 61.5581 8.872C63.4781 16.648 65.0621 23.056 66.3101 28.096C67.5581 33.136 68.5421 37.216 69.2621 40.336C69.9821 43.408 70.4861 45.688 70.7741 47.176C71.0621 48.664 71.2061 49.696 71.2061 50.272C71.2061 50.944 71.0381 51.4 70.7021 51.64C70.4141 51.88 69.9341 52 69.2621 52H65.5901C63.5261 52 61.8701 51.76 60.6221 51.28C59.4221 50.752 58.4861 50.008 57.8141 49.048C57.1901 48.088 56.7341 46.936 56.4461 45.592C56.1581 44.2 55.9181 42.64 55.7261 40.912H43.1981L40.8221 50.848C40.5821 51.616 40.0301 52 39.1661 52H35.3501C34.5821 52 33.7901 51.928 32.9741 51.784C32.1581 51.592 31.4141 51.304 30.7421 50.92C30.1181 50.536 29.5901 50.056 29.1581 49.48C28.7261 48.856 28.5101 48.112 28.5101 47.248C28.5101 46.192 28.8461 44.464 29.5181 42.064C30.1901 39.664 31.0301 36.952 32.0381 33.928C33.0941 30.856 34.2461 27.664 35.4941 24.352C36.7901 20.992 38.0381 17.824 39.2381 14.848C40.4381 11.872 41.5181 9.256 42.4781 7C43.4861 4.744 44.2541 3.16 44.7821 2.248C45.1661 1.576 45.5021 1.192 45.7901 1.096C46.1261 0.951998 46.7261 0.879997 47.5901 0.879997H54.4301ZM45.7901 30.472H54.0701L51.0461 11.464L45.7901 30.472ZM90.5123 52.72C87.6803 52.72 85.3523 52.528 83.5283 52.144C81.7043 51.808 80.2403 51.304 79.1363 50.632C78.0803 49.912 77.3363 49.024 76.9043 47.968C76.5203 46.912 76.3283 45.664 76.3283 44.224C76.3283 43.792 76.3523 43.192 76.4003 42.424C76.4483 41.608 76.5203 40.48 76.6163 39.04C76.7123 37.6 76.8323 35.752 76.9763 33.496C77.1683 31.192 77.4083 28.312 77.6963 24.856C78.0323 20.584 78.2963 17.2 78.4883 14.704C78.6803 12.208 78.8243 10.288 78.9203 8.944C79.0163 7.552 79.0643 6.592 79.0643 6.064C79.1123 5.488 79.1363 5.008 79.1363 4.624C79.1363 3.856 79.1363 3.232 79.1363 2.752C79.1843 2.272 79.2323 1.912 79.2803 1.672C79.3763 1.384 79.4963 1.192 79.6403 1.096C79.8323 0.951998 80.0963 0.879997 80.4323 0.879997C83.2643 0.687997 85.6643 0.543997 87.6323 0.447999C89.6483 0.351997 91.4003 0.303996 92.8883 0.303996C96.5363 0.303996 99.6563 0.615996 102.248 1.24C104.888 1.816 107.024 2.656 108.656 3.76C110.288 4.864 111.488 6.232 112.256 7.864C113.024 9.496 113.408 11.344 113.408 13.408C113.408 14.56 113.288 15.76 113.048 17.008C112.808 18.208 112.4 19.36 111.824 20.464C111.248 21.568 110.456 22.552 109.448 23.416C108.488 24.232 107.264 24.832 105.776 25.216C108.56 26.08 110.528 27.52 111.68 29.536C112.832 31.504 113.408 33.856 113.408 36.592C113.408 38.8 113.048 40.888 112.328 42.856C111.608 44.776 110.36 46.48 108.584 47.968C106.808 49.408 104.456 50.56 101.528 51.424C98.6003 52.288 94.9283 52.72 90.5123 52.72ZM94.6163 30.4C94.0883 30.4 93.4403 30.448 92.6723 30.544C91.9043 30.592 91.1123 30.688 90.2963 30.832L89.5043 42.568C91.2323 43.096 92.7923 43.36 94.1843 43.36C95.6723 43.36 96.8723 43.144 97.7843 42.712C98.6963 42.28 99.3923 41.752 99.8723 41.128C100.4 40.456 100.736 39.736 100.88 38.968C101.072 38.152 101.168 37.408 101.168 36.736C101.168 34.96 100.664 33.472 99.6563 32.272C98.6963 31.024 97.0163 30.4 94.6163 30.4ZM91.5923 10.6C91.4963 11.848 91.4003 13.312 91.3043 14.992C91.2563 16.672 91.1603 18.496 91.0163 20.464C92.5523 20.848 93.9203 21.04 95.1203 21.04C96.5603 21.04 97.7123 20.872 98.5763 20.536C99.4403 20.2 100.112 19.768 100.592 19.24C101.12 18.712 101.456 18.136 101.6 17.512C101.792 16.888 101.888 16.288 101.888 15.712C101.888 14.224 101.384 12.952 100.376 11.896C99.4163 10.792 97.7363 10.24 95.3363 10.24C94.8083 10.24 94.2083 10.288 93.5363 10.384C92.9123 10.432 92.2643 10.504 91.5923 10.6ZM133.53 31.192L132.162 50.92C132.114 51.304 132.066 51.592 132.018 51.784C132.018 51.928 131.802 52 131.37 52H127.41C124.722 52 122.802 51.472 121.65 50.416C120.498 49.36 119.922 47.848 119.922 45.88C119.922 44.92 119.994 43.288 120.138 40.984C120.282 38.632 120.474 35.968 120.714 32.992C120.954 30.016 121.194 26.872 121.434 23.56C121.674 20.248 121.914 17.128 122.154 14.2C122.394 11.272 122.586 8.704 122.73 6.496C122.874 4.288 122.946 2.776 122.946 1.96C122.946 1.24 123.33 0.879997 124.098 0.879997H149.442C149.73 0.879997 149.994 0.951998 150.234 1.096C150.474 1.24 150.594 1.504 150.594 1.888L150.306 6.136C150.21 7.576 149.802 8.752 149.082 9.664C148.41 10.528 146.994 10.96 144.834 10.96H134.898L134.178 21.112H144.402C144.69 21.112 144.954 21.184 145.194 21.328C145.434 21.472 145.554 21.736 145.554 22.12L145.266 26.368C145.17 27.808 144.762 28.984 144.042 29.896C143.37 30.76 141.954 31.192 139.794 31.192H133.53ZM160.808 52C158.12 52 156.2 51.472 155.048 50.416C153.896 49.36 153.32 47.848 153.32 45.88C153.32 44.92 153.392 43.288 153.536 40.984C153.68 38.632 153.872 35.968 154.112 32.992C154.352 30.016 154.592 26.872 154.832 23.56C155.072 20.248 155.312 17.128 155.552 14.2C155.792 11.272 155.984 8.704 156.128 6.496C156.272 4.288 156.344 2.776 156.344 1.96C156.344 1.24 156.728 0.879997 157.496 0.879997H161.456C164.144 0.879997 165.992 1.408 167 2.464C168.056 3.472 168.584 4.984 168.584 7C168.584 7.24 168.56 7.456 168.512 7.648C168.512 7.84 168.512 8.056 168.512 8.296L166.136 41.92H179.096C179.384 41.92 179.648 42.016 179.888 42.208C180.128 42.352 180.248 42.592 180.248 42.928L179.96 47.176C179.864 48.616 179.456 49.792 178.736 50.704C178.064 51.568 176.648 52 174.488 52H160.808ZM193.082 52C190.394 52 188.474 51.472 187.322 50.416C186.17 49.36 185.594 47.848 185.594 45.88C185.594 44.92 185.666 43.288 185.81 40.984C185.954 38.632 186.146 35.968 186.386 32.992C186.626 30.016 186.866 26.872 187.106 23.56C187.346 20.248 187.586 17.128 187.826 14.2C188.066 11.272 188.258 8.704 188.402 6.496C188.546 4.288 188.618 2.776 188.618 1.96C188.618 1.24 189.002 0.879997 189.77 0.879997H193.73C196.658 0.879997 198.626 1.504 199.634 2.752C200.642 4 201.146 5.848 201.146 8.296C201.146 8.536 201.098 9.304 201.002 10.6C200.954 11.896 200.858 13.528 200.714 15.496C200.57 17.464 200.402 19.672 200.21 22.12C200.066 24.52 199.898 26.992 199.706 29.536C199.562 32.08 199.394 34.576 199.202 37.024C199.058 39.424 198.914 41.608 198.77 43.576C198.626 45.544 198.506 47.2 198.41 48.544C198.314 49.84 198.242 50.632 198.194 50.92C198.146 51.304 198.05 51.592 197.906 51.784C197.762 51.928 197.474 52 197.042 52H193.082ZM248.051 50.488C248.051 51.16 247.643 51.592 246.827 51.784C246.059 51.976 244.955 52.072 243.515 52.072C241.691 52.072 240.131 51.976 238.835 51.784C237.539 51.592 236.435 51.304 235.523 50.92C234.659 50.536 233.939 50.08 233.363 49.552C232.787 48.976 232.331 48.304 231.995 47.536L225.947 34.936C224.267 37.528 222.611 40.144 220.979 42.784C219.347 45.376 217.571 48.136 215.651 51.064C215.555 51.208 215.195 51.52 214.571 52C213.995 52.48 213.371 52.72 212.699 52.72C212.027 52.72 211.259 52.36 210.395 51.64C209.579 50.872 208.811 49.984 208.091 48.976C207.371 47.92 206.771 46.816 206.291 45.664C205.811 44.464 205.571 43.432 205.571 42.568C205.571 41.56 206.099 40.36 207.155 38.968C208.211 37.528 209.531 36.064 211.115 34.576C212.699 33.04 214.403 31.552 216.227 30.112C218.099 28.672 219.851 27.4 221.483 26.296C219.515 22.936 217.667 19.84 215.939 17.008C214.211 14.128 212.723 11.608 211.475 9.448C210.227 7.288 209.243 5.56 208.523 4.264C207.803 2.968 207.443 2.2 207.443 1.96C207.443 1.72 207.851 1.48 208.667 1.24C209.483 0.999997 210.659 0.879997 212.195 0.879997C214.067 0.879997 215.699 0.999997 217.091 1.24C218.531 1.48 219.755 1.888 220.763 2.464C221.819 3.04 222.731 3.808 223.499 4.768C224.267 5.728 224.963 6.904 225.587 8.296L229.547 17.296C230.555 16 231.443 14.776 232.211 13.624C232.979 12.472 233.771 11.272 234.587 10.024C235.403 8.776 236.291 7.432 237.251 5.992C238.211 4.552 239.339 2.896 240.635 1.024C241.067 0.447999 241.667 0.159998 242.435 0.159998C243.299 0.159998 244.163 0.567998 245.027 1.384C245.939 2.152 246.755 3.088 247.475 4.192C248.195 5.248 248.771 6.352 249.203 7.504C249.683 8.608 249.923 9.496 249.923 10.168C249.923 11.08 249.347 12.232 248.195 13.624C247.091 15.016 245.723 16.456 244.091 17.944C242.459 19.432 240.731 20.896 238.907 22.336C237.083 23.728 235.475 24.88 234.083 25.792C234.659 26.944 235.403 28.288 236.315 29.824C237.227 31.312 238.187 32.896 239.195 34.576C240.251 36.208 241.307 37.864 242.363 39.544C243.419 41.176 244.355 42.712 245.171 44.152C246.035 45.592 246.731 46.888 247.259 48.04C247.787 49.144 248.051 49.96 248.051 50.488Z" fill="#B82601"/>
</svg>
